<?xml version="1.0" encoding="UTF-8" standalone="no"?>
<svg
   id="svg10448"
   version="1.1"
   viewBox="0 0 600 400.00003"
   height="400.00003"
   width="600"
   xmlns:xlink="http://www.w3.org/1999/xlink"
   xmlns="http://www.w3.org/2000/svg"
   xmlns:svg="http://www.w3.org/2000/svg"
   xmlns:rdf="http://www.w3.org/1999/02/22-rdf-syntax-ns#"
   xmlns:cc="http://creativecommons.org/ns#"
   xmlns:dc="http://purl.org/dc/elements/1.1/">
  <defs
     id="defs10442">
    <rect
       x="0"
       y="0"
       width="389.9512"
       height="192.51305"
       id="rect4045" />
    <linearGradient
       id="linearGradient3935">
      <stop
         style="stop-color:#62a0ea;stop-opacity:1;"
         offset="0"
         id="stop3931" />
      <stop
         style="stop-color:#c061cb;stop-opacity:1;"
         offset="1"
         id="stop3933" />
    </linearGradient>
    <linearGradient
       xlink:href="#linearGradient3935"
       id="linearGradient3937"
       x1="0"
       y1="0"
       x2="600"
       y2="400"
       gradientUnits="userSpaceOnUse" />
    <rect
       x="0"
       y="0"
       width="389.9512"
       height="192.51305"
       id="rect4053" />
    <rect
       x="0"
       y="0"
       width="389.9512"
       height="192.51305"
       id="rect4059" />
    <rect
       x="0"
       y="0"
       width="389.9512"
       height="192.51305"
       id="rect4065" />
    <rect
       x="0"
       y="0"
       width="389.9512"
       height="192.51305"
       id="rect4071" />
    <rect
       x="0"
       y="0"
       width="389.9512"
       height="192.51305"
       id="rect4083" />
    <rect
       x="0"
       y="0"
       width="389.9512"
       height="192.51305"
       id="rect4089" />
    <rect
       x="0"
       y="0"
       width="389.9512"
       height="192.51305"
       id="rect4095" />
    <rect
       x="0"
       y="0"
       width="389.9512"
       height="192.51305"
       id="rect4101" />
  </defs>
  <metadata
     id="metadata10445">
    <rdf:RDF>
      <cc:Work
         rdf:about="">
        <dc:format>image/svg+xml</dc:format>
        <dc:type
           rdf:resource="http://purl.org/dc/dcmitype/StillImage" />
      </cc:Work>
    </rdf:RDF>
  </metadata>
  <rect
     y="0"
     x="0"
     width="600"
     id="rect965"
     height="400"
     style="fill:url(#linearGradient3937);fill-opacity:1" />
  <g
     aria-label="Daudix UFO"
     transform="translate(104.9638,176.96785)"
     id="text4043"
     style="font-weight:900;font-size:42.6667px;font-family:Inter;-inkscape-font-specification:'Inter Heavy';text-align:center;text-anchor:middle;white-space:pre;shape-inside:url(#rect4045);display:inline;fill:#ffffff;stroke-width:2;stroke-linecap:square">
    <path
       d="m 84.975567,39.486727 c 9.454552,0 15.454553,-5.818186 15.454553,-15.515163 0,-9.696977 -6.000001,-15.5151628 -15.575765,-15.5151628 H 73.036164 V 39.486727 Z m -3.515154,-7.15152 V 15.607922 h 2.969699 c 4.848488,0 7.515157,1.878789 7.515157,8.363642 0,6.484854 -2.666669,8.363643 -7.272733,8.363643 z"
       id="path4169" />
    <path
       d="m 110.91496,39.850364 c 3.0303,0 5.31818,-1.030304 6.72728,-3.636366 h 0.18181 v 3.272729 h 7.81819 V 23.547322 c 0,-4.303034 -4.07576,-7.63637 -10.72728,-7.63637 -6.95455,0 -10.3788,3.636367 -10.66667,7.878794 h 7.69697 c 0.19697,-1.439395 1.25758,-2.121214 2.84849,-2.121214 1.45454,0 2.48485,0.666667 2.48485,1.87879 v 0.06061 c 0,1.348486 -1.48485,1.772728 -5.39394,2.060607 -4.80304,0.348485 -8.54547,2.287881 -8.54547,7.393945 0,4.636367 3.12122,6.787884 7.57577,6.787884 z m 2.72727,-5.272731 c -1.42424,0 -2.42424,-0.69697 -2.42424,-2.000002 0,-1.19697 0.84848,-2.121213 2.78788,-2.424244 1.33333,-0.212121 2.45455,-0.484849 3.33333,-0.848485 v 1.939395 c 0,2.121214 -1.80303,3.333336 -3.69697,3.333336 z"
       id="path4171" />
    <path
       d="m 144.7332,29.304902 c 0.0151,2.303032 -1.31818,3.696972 -3.39394,3.696972 -2.10606,0 -3.31818,-1.39394 -3.33334,-3.696972 V 16.213983 h -8.36364 v 14.848496 c 0.0152,5.090913 3.22728,8.727279 8.12122,8.727279 3.4697,0 6.13637,-1.757577 7.15152,-4.727276 h 0.24242 v 4.424245 h 7.9394 V 16.213983 h -8.36364 z"
       id="path4173" />
    <path
       d="m 165.76349,39.789758 c 3.27273,0 5.51516,-1.757577 6.48486,-4.121215 h 0.18182 v 3.818184 h 8.30303 V 8.4564012 h -8.36364 V 20.274592 h -0.12121 c -0.90909,-2.363638 -3.09091,-4.36364 -6.54546,-4.36364 -4.60607,0 -9.09092,3.515154 -9.09092,11.939403 0,8.060612 4.18182,11.939403 9.15152,11.939403 z m 3.09092,-6.424247 c -2.30304,0 -3.63637,-2.060608 -3.63637,-5.515156 0,-3.454548 1.33333,-5.515156 3.63637,-5.515156 2.30303,0 3.69697,2.060608 3.69697,5.515156 0,3.393942 -1.39394,5.515156 -3.69697,5.515156 z"
       id="path4175" />
    <path
       d="m 184.8544,39.486727 h 8.36364 V 16.213983 h -8.36364 z m 4.18182,-25.696988 c 2.27273,0 4.12121,-1.712123 4.12121,-3.8181851 0,-2.1060622 -1.84848,-3.8181847 -4.12121,-3.8181847 -2.27273,0 -4.12122,1.7121225 -4.12122,3.8181847 0,2.1060621 1.84849,3.8181851 4.12122,3.8181851 z"
       id="path4177" />
    <path
       d="m 204.67257,16.213983 h -8.36364 l 6.18182,11.636372 -6.60606,11.636372 h 8.36364 l 3.81818,-7.393945 3.9394,7.393945 h 8.24243 l -6.54546,-11.636372 6.24243,-11.636372 h -8.30303 l -3.57577,7.212126 z"
       id="path4179" />
    <path
       d="M 249.64228,8.4564012 V 27.607931 c 0,2.893941 -2.07576,4.9697 -4.9697,4.9697 -2.89395,0 -4.96971,-2.075759 -4.96971,-4.9697 V 8.4564012 h -8.42424 V 28.335204 c 0,7.090914 5.36364,11.51516 13.39395,11.51516 7.9697,0 13.39394,-4.424246 13.39394,-11.51516 V 8.4564012 Z"
       id="path4181" />
    <path
       d="m 262.0665,39.486727 h 8.42425 V 27.365506 h 12.06061 V 20.577622 H 270.49075 V 15.244285 H 283.8847 V 8.4564012 h -21.8182 z"
       id="path4183" />
    <path
       d="m 317.03625,23.971564 c 0,-10.363644 -6.66668,-15.9394055 -15.09092,-15.9394055 -8.48486,0 -15.09093,5.5757615 -15.09093,15.9394055 0,10.303038 6.60607,15.939406 15.09093,15.939406 8.42424,0 15.09092,-5.575762 15.09092,-15.939406 z m -8.66668,0 c 0,5.575762 -2.24242,8.606067 -6.42424,8.606067 -4.18183,0 -6.42425,-3.030305 -6.42425,-8.606067 0,-5.575761 2.24242,-8.606067 6.42425,-8.606067 4.18182,0 6.42424,3.030306 6.42424,8.606067 z"
       id="path4185" />
  </g>
  <g
     aria-label="Daudix UFO"
     transform="translate(104.9638,143.21025)"
     id="text4051"
     style="font-weight:900;font-size:42.6667px;font-family:Inter;-inkscape-font-specification:'Inter Heavy';text-align:center;text-anchor:middle;white-space:pre;shape-inside:url(#rect4053);display:inline;fill:#dc8add;fill-opacity:0.8;stroke-width:2;stroke-linecap:square">
    <path
       d="m 84.975567,39.486727 c 9.454552,0 15.454553,-5.818186 15.454553,-15.515163 0,-9.696977 -6.000001,-15.5151628 -15.575765,-15.5151628 H 73.036164 V 39.486727 Z m -3.515154,-7.15152 V 15.607922 h 2.969699 c 4.848488,0 7.515157,1.878789 7.515157,8.363642 0,6.484854 -2.666669,8.363643 -7.272733,8.363643 z"
       id="path4188" />
    <path
       d="m 110.91496,39.850364 c 3.0303,0 5.31818,-1.030304 6.72728,-3.636366 h 0.18181 v 3.272729 h 7.81819 V 23.547322 c 0,-4.303034 -4.07576,-7.63637 -10.72728,-7.63637 -6.95455,0 -10.3788,3.636367 -10.66667,7.878794 h 7.69697 c 0.19697,-1.439395 1.25758,-2.121214 2.84849,-2.121214 1.45454,0 2.48485,0.666667 2.48485,1.87879 v 0.06061 c 0,1.348486 -1.48485,1.772728 -5.39394,2.060607 -4.80304,0.348485 -8.54547,2.287881 -8.54547,7.393945 0,4.636367 3.12122,6.787884 7.57577,6.787884 z m 2.72727,-5.272731 c -1.42424,0 -2.42424,-0.69697 -2.42424,-2.000002 0,-1.19697 0.84848,-2.121213 2.78788,-2.424244 1.33333,-0.212121 2.45455,-0.484849 3.33333,-0.848485 v 1.939395 c 0,2.121214 -1.80303,3.333336 -3.69697,3.333336 z"
       id="path4190" />
    <path
       d="m 144.7332,29.304902 c 0.0151,2.303032 -1.31818,3.696972 -3.39394,3.696972 -2.10606,0 -3.31818,-1.39394 -3.33334,-3.696972 V 16.213983 h -8.36364 v 14.848496 c 0.0152,5.090913 3.22728,8.727279 8.12122,8.727279 3.4697,0 6.13637,-1.757577 7.15152,-4.727276 h 0.24242 v 4.424245 h 7.9394 V 16.213983 h -8.36364 z"
       id="path4192" />
    <path
       d="m 165.76349,39.789758 c 3.27273,0 5.51516,-1.757577 6.48486,-4.121215 h 0.18182 v 3.818184 h 8.30303 V 8.4564012 h -8.36364 V 20.274592 h -0.12121 c -0.90909,-2.363638 -3.09091,-4.36364 -6.54546,-4.36364 -4.60607,0 -9.09092,3.515154 -9.09092,11.939403 0,8.060612 4.18182,11.939403 9.15152,11.939403 z m 3.09092,-6.424247 c -2.30304,0 -3.63637,-2.060608 -3.63637,-5.515156 0,-3.454548 1.33333,-5.515156 3.63637,-5.515156 2.30303,0 3.69697,2.060608 3.69697,5.515156 0,3.393942 -1.39394,5.515156 -3.69697,5.515156 z"
       id="path4194" />
    <path
       d="m 184.8544,39.486727 h 8.36364 V 16.213983 h -8.36364 z m 4.18182,-25.696988 c 2.27273,0 4.12121,-1.712123 4.12121,-3.8181851 0,-2.1060622 -1.84848,-3.8181847 -4.12121,-3.8181847 -2.27273,0 -4.12122,1.7121225 -4.12122,3.8181847 0,2.1060621 1.84849,3.8181851 4.12122,3.8181851 z"
       id="path4196" />
    <path
       d="m 204.67257,16.213983 h -8.36364 l 6.18182,11.636372 -6.60606,11.636372 h 8.36364 l 3.81818,-7.393945 3.9394,7.393945 h 8.24243 l -6.54546,-11.636372 6.24243,-11.636372 h -8.30303 l -3.57577,7.212126 z"
       id="path4198" />
    <path
       d="M 249.64228,8.4564012 V 27.607931 c 0,2.893941 -2.07576,4.9697 -4.9697,4.9697 -2.89395,0 -4.96971,-2.075759 -4.96971,-4.9697 V 8.4564012 h -8.42424 V 28.335204 c 0,7.090914 5.36364,11.51516 13.39395,11.51516 7.9697,0 13.39394,-4.424246 13.39394,-11.51516 V 8.4564012 Z"
       id="path4200" />
    <path
       d="m 262.0665,39.486727 h 8.42425 V 27.365506 h 12.06061 V 20.577622 H 270.49075 V 15.244285 H 283.8847 V 8.4564012 h -21.8182 z"
       id="path4202" />
    <path
       d="m 317.03625,23.971564 c 0,-10.363644 -6.66668,-15.9394055 -15.09092,-15.9394055 -8.48486,0 -15.09093,5.5757615 -15.09093,15.9394055 0,10.303038 6.60607,15.939406 15.09093,15.939406 8.42424,0 15.09092,-5.575762 15.09092,-15.939406 z m -8.66668,0 c 0,5.575762 -2.24242,8.606067 -6.42424,8.606067 -4.18183,0 -6.42425,-3.030305 -6.42425,-8.606067 0,-5.575761 2.24242,-8.606067 6.42425,-8.606067 4.18182,0 6.42424,3.030306 6.42424,8.606067 z"
       id="path4204" />
  </g>
  <g
     aria-label="Daudix UFO"
     transform="translate(104.9638,109.45265)"
     id="text4057"
     style="font-weight:900;font-size:42.6667px;font-family:Inter;-inkscape-font-specification:'Inter Heavy';text-align:center;text-anchor:middle;white-space:pre;shape-inside:url(#rect4059);display:inline;fill:#dc8add;fill-opacity:0.6;stroke-width:2;stroke-linecap:square">
    <path
       d="m 84.975567,39.486727 c 9.454552,0 15.454553,-5.818186 15.454553,-15.515163 0,-9.696977 -6.000001,-15.5151628 -15.575765,-15.5151628 H 73.036164 V 39.486727 Z m -3.515154,-7.15152 V 15.607922 h 2.969699 c 4.848488,0 7.515157,1.878789 7.515157,8.363642 0,6.484854 -2.666669,8.363643 -7.272733,8.363643 z"
       id="path4207" />
    <path
       d="m 110.91496,39.850364 c 3.0303,0 5.31818,-1.030304 6.72728,-3.636366 h 0.18181 v 3.272729 h 7.81819 V 23.547322 c 0,-4.303034 -4.07576,-7.63637 -10.72728,-7.63637 -6.95455,0 -10.3788,3.636367 -10.66667,7.878794 h 7.69697 c 0.19697,-1.439395 1.25758,-2.121214 2.84849,-2.121214 1.45454,0 2.48485,0.666667 2.48485,1.87879 v 0.06061 c 0,1.348486 -1.48485,1.772728 -5.39394,2.060607 -4.80304,0.348485 -8.54547,2.287881 -8.54547,7.393945 0,4.636367 3.12122,6.787884 7.57577,6.787884 z m 2.72727,-5.272731 c -1.42424,0 -2.42424,-0.69697 -2.42424,-2.000002 0,-1.19697 0.84848,-2.121213 2.78788,-2.424244 1.33333,-0.212121 2.45455,-0.484849 3.33333,-0.848485 v 1.939395 c 0,2.121214 -1.80303,3.333336 -3.69697,3.333336 z"
       id="path4209" />
    <path
       d="m 144.7332,29.304902 c 0.0151,2.303032 -1.31818,3.696972 -3.39394,3.696972 -2.10606,0 -3.31818,-1.39394 -3.33334,-3.696972 V 16.213983 h -8.36364 v 14.848496 c 0.0152,5.090913 3.22728,8.727279 8.12122,8.727279 3.4697,0 6.13637,-1.757577 7.15152,-4.727276 h 0.24242 v 4.424245 h 7.9394 V 16.213983 h -8.36364 z"
       id="path4211" />
    <path
       d="m 165.76349,39.789758 c 3.27273,0 5.51516,-1.757577 6.48486,-4.121215 h 0.18182 v 3.818184 h 8.30303 V 8.4564012 h -8.36364 V 20.274592 h -0.12121 c -0.90909,-2.363638 -3.09091,-4.36364 -6.54546,-4.36364 -4.60607,0 -9.09092,3.515154 -9.09092,11.939403 0,8.060612 4.18182,11.939403 9.15152,11.939403 z m 3.09092,-6.424247 c -2.30304,0 -3.63637,-2.060608 -3.63637,-5.515156 0,-3.454548 1.33333,-5.515156 3.63637,-5.515156 2.30303,0 3.69697,2.060608 3.69697,5.515156 0,3.393942 -1.39394,5.515156 -3.69697,5.515156 z"
       id="path4213" />
    <path
       d="m 184.8544,39.486727 h 8.36364 V 16.213983 h -8.36364 z m 4.18182,-25.696988 c 2.27273,0 4.12121,-1.712123 4.12121,-3.8181851 0,-2.1060622 -1.84848,-3.8181847 -4.12121,-3.8181847 -2.27273,0 -4.12122,1.7121225 -4.12122,3.8181847 0,2.1060621 1.84849,3.8181851 4.12122,3.8181851 z"
       id="path4215" />
    <path
       d="m 204.67257,16.213983 h -8.36364 l 6.18182,11.636372 -6.60606,11.636372 h 8.36364 l 3.81818,-7.393945 3.9394,7.393945 h 8.24243 l -6.54546,-11.636372 6.24243,-11.636372 h -8.30303 l -3.57577,7.212126 z"
       id="path4217" />
    <path
       d="M 249.64228,8.4564012 V 27.607931 c 0,2.893941 -2.07576,4.9697 -4.9697,4.9697 -2.89395,0 -4.96971,-2.075759 -4.96971,-4.9697 V 8.4564012 h -8.42424 V 28.335204 c 0,7.090914 5.36364,11.51516 13.39395,11.51516 7.9697,0 13.39394,-4.424246 13.39394,-11.51516 V 8.4564012 Z"
       id="path4219" />
    <path
       d="m 262.0665,39.486727 h 8.42425 V 27.365506 h 12.06061 V 20.577622 H 270.49075 V 15.244285 H 283.8847 V 8.4564012 h -21.8182 z"
       id="path4221" />
    <path
       d="m 317.03625,23.971564 c 0,-10.363644 -6.66668,-15.9394055 -15.09092,-15.9394055 -8.48486,0 -15.09093,5.5757615 -15.09093,15.9394055 0,10.303038 6.60607,15.939406 15.09093,15.939406 8.42424,0 15.09092,-5.575762 15.09092,-15.939406 z m -8.66668,0 c 0,5.575762 -2.24242,8.606067 -6.42424,8.606067 -4.18183,0 -6.42425,-3.030305 -6.42425,-8.606067 0,-5.575761 2.24242,-8.606067 6.42425,-8.606067 4.18182,0 6.42424,3.030306 6.42424,8.606067 z"
       id="path4223" />
  </g>
  <g
     aria-label="Daudix UFO"
     transform="translate(104.9638,75.695049)"
     id="text4063"
     style="font-weight:900;font-size:42.6667px;font-family:Inter;-inkscape-font-specification:'Inter Heavy';text-align:center;text-anchor:middle;white-space:pre;shape-inside:url(#rect4065);display:inline;fill:#dc8add;fill-opacity:0.4;stroke-width:2;stroke-linecap:square">
    <path
       d="m 84.975567,39.486727 c 9.454552,0 15.454553,-5.818186 15.454553,-15.515163 0,-9.696977 -6.000001,-15.5151628 -15.575765,-15.5151628 H 73.036164 V 39.486727 Z m -3.515154,-7.15152 V 15.607922 h 2.969699 c 4.848488,0 7.515157,1.878789 7.515157,8.363642 0,6.484854 -2.666669,8.363643 -7.272733,8.363643 z"
       id="path4226" />
    <path
       d="m 110.91496,39.850364 c 3.0303,0 5.31818,-1.030304 6.72728,-3.636366 h 0.18181 v 3.272729 h 7.81819 V 23.547322 c 0,-4.303034 -4.07576,-7.63637 -10.72728,-7.63637 -6.95455,0 -10.3788,3.636367 -10.66667,7.878794 h 7.69697 c 0.19697,-1.439395 1.25758,-2.121214 2.84849,-2.121214 1.45454,0 2.48485,0.666667 2.48485,1.87879 v 0.06061 c 0,1.348486 -1.48485,1.772728 -5.39394,2.060607 -4.80304,0.348485 -8.54547,2.287881 -8.54547,7.393945 0,4.636367 3.12122,6.787884 7.57577,6.787884 z m 2.72727,-5.272731 c -1.42424,0 -2.42424,-0.69697 -2.42424,-2.000002 0,-1.19697 0.84848,-2.121213 2.78788,-2.424244 1.33333,-0.212121 2.45455,-0.484849 3.33333,-0.848485 v 1.939395 c 0,2.121214 -1.80303,3.333336 -3.69697,3.333336 z"
       id="path4228" />
    <path
       d="m 144.7332,29.304902 c 0.0151,2.303032 -1.31818,3.696972 -3.39394,3.696972 -2.10606,0 -3.31818,-1.39394 -3.33334,-3.696972 V 16.213983 h -8.36364 v 14.848496 c 0.0152,5.090913 3.22728,8.727279 8.12122,8.727279 3.4697,0 6.13637,-1.757577 7.15152,-4.727276 h 0.24242 v 4.424245 h 7.9394 V 16.213983 h -8.36364 z"
       id="path4230" />
    <path
       d="m 165.76349,39.789758 c 3.27273,0 5.51516,-1.757577 6.48486,-4.121215 h 0.18182 v 3.818184 h 8.30303 V 8.4564012 h -8.36364 V 20.274592 h -0.12121 c -0.90909,-2.363638 -3.09091,-4.36364 -6.54546,-4.36364 -4.60607,0 -9.09092,3.515154 -9.09092,11.939403 0,8.060612 4.18182,11.939403 9.15152,11.939403 z m 3.09092,-6.424247 c -2.30304,0 -3.63637,-2.060608 -3.63637,-5.515156 0,-3.454548 1.33333,-5.515156 3.63637,-5.515156 2.30303,0 3.69697,2.060608 3.69697,5.515156 0,3.393942 -1.39394,5.515156 -3.69697,5.515156 z"
       id="path4232" />
    <path
       d="m 184.8544,39.486727 h 8.36364 V 16.213983 h -8.36364 z m 4.18182,-25.696988 c 2.27273,0 4.12121,-1.712123 4.12121,-3.8181851 0,-2.1060622 -1.84848,-3.8181847 -4.12121,-3.8181847 -2.27273,0 -4.12122,1.7121225 -4.12122,3.8181847 0,2.1060621 1.84849,3.8181851 4.12122,3.8181851 z"
       id="path4234" />
    <path
       d="m 204.67257,16.213983 h -8.36364 l 6.18182,11.636372 -6.60606,11.636372 h 8.36364 l 3.81818,-7.393945 3.9394,7.393945 h 8.24243 l -6.54546,-11.636372 6.24243,-11.636372 h -8.30303 l -3.57577,7.212126 z"
       id="path4236" />
    <path
       d="M 249.64228,8.4564012 V 27.607931 c 0,2.893941 -2.07576,4.9697 -4.9697,4.9697 -2.89395,0 -4.96971,-2.075759 -4.96971,-4.9697 V 8.4564012 h -8.42424 V 28.335204 c 0,7.090914 5.36364,11.51516 13.39395,11.51516 7.9697,0 13.39394,-4.424246 13.39394,-11.51516 V 8.4564012 Z"
       id="path4238" />
    <path
       d="m 262.0665,39.486727 h 8.42425 V 27.365506 h 12.06061 V 20.577622 H 270.49075 V 15.244285 H 283.8847 V 8.4564012 h -21.8182 z"
       id="path4240" />
    <path
       d="m 317.03625,23.971564 c 0,-10.363644 -6.66668,-15.9394055 -15.09092,-15.9394055 -8.48486,0 -15.09093,5.5757615 -15.09093,15.9394055 0,10.303038 6.60607,15.939406 15.09093,15.939406 8.42424,0 15.09092,-5.575762 15.09092,-15.939406 z m -8.66668,0 c 0,5.575762 -2.24242,8.606067 -6.42424,8.606067 -4.18183,0 -6.42425,-3.030305 -6.42425,-8.606067 0,-5.575761 2.24242,-8.606067 6.42425,-8.606067 4.18182,0 6.42424,3.030306 6.42424,8.606067 z"
       id="path4242" />
  </g>
  <g
     aria-label="Daudix UFO"
     transform="translate(104.9638,41.937448)"
     id="text4069"
     style="font-weight:900;font-size:42.6667px;font-family:Inter;-inkscape-font-specification:'Inter Heavy';text-align:center;text-anchor:middle;white-space:pre;shape-inside:url(#rect4071);display:inline;fill:#dc8add;fill-opacity:0.2;stroke-width:2;stroke-linecap:square">
    <path
       d="m 84.975567,39.486727 c 9.454552,0 15.454553,-5.818186 15.454553,-15.515163 0,-9.696977 -6.000001,-15.5151628 -15.575765,-15.5151628 H 73.036164 V 39.486727 Z m -3.515154,-7.15152 V 15.607922 h 2.969699 c 4.848488,0 7.515157,1.878789 7.515157,8.363642 0,6.484854 -2.666669,8.363643 -7.272733,8.363643 z"
       id="path4245" />
    <path
       d="m 110.91496,39.850364 c 3.0303,0 5.31818,-1.030304 6.72728,-3.636366 h 0.18181 v 3.272729 h 7.81819 V 23.547322 c 0,-4.303034 -4.07576,-7.63637 -10.72728,-7.63637 -6.95455,0 -10.3788,3.636367 -10.66667,7.878794 h 7.69697 c 0.19697,-1.439395 1.25758,-2.121214 2.84849,-2.121214 1.45454,0 2.48485,0.666667 2.48485,1.87879 v 0.06061 c 0,1.348486 -1.48485,1.772728 -5.39394,2.060607 -4.80304,0.348485 -8.54547,2.287881 -8.54547,7.393945 0,4.636367 3.12122,6.787884 7.57577,6.787884 z m 2.72727,-5.272731 c -1.42424,0 -2.42424,-0.69697 -2.42424,-2.000002 0,-1.19697 0.84848,-2.121213 2.78788,-2.424244 1.33333,-0.212121 2.45455,-0.484849 3.33333,-0.848485 v 1.939395 c 0,2.121214 -1.80303,3.333336 -3.69697,3.333336 z"
       id="path4247" />
    <path
       d="m 144.7332,29.304902 c 0.0151,2.303032 -1.31818,3.696972 -3.39394,3.696972 -2.10606,0 -3.31818,-1.39394 -3.33334,-3.696972 V 16.213983 h -8.36364 v 14.848496 c 0.0152,5.090913 3.22728,8.727279 8.12122,8.727279 3.4697,0 6.13637,-1.757577 7.15152,-4.727276 h 0.24242 v 4.424245 h 7.9394 V 16.213983 h -8.36364 z"
       id="path4249" />
    <path
       d="m 165.76349,39.789758 c 3.27273,0 5.51516,-1.757577 6.48486,-4.121215 h 0.18182 v 3.818184 h 8.30303 V 8.4564012 h -8.36364 V 20.274592 h -0.12121 c -0.90909,-2.363638 -3.09091,-4.36364 -6.54546,-4.36364 -4.60607,0 -9.09092,3.515154 -9.09092,11.939403 0,8.060612 4.18182,11.939403 9.15152,11.939403 z m 3.09092,-6.424247 c -2.30304,0 -3.63637,-2.060608 -3.63637,-5.515156 0,-3.454548 1.33333,-5.515156 3.63637,-5.515156 2.30303,0 3.69697,2.060608 3.69697,5.515156 0,3.393942 -1.39394,5.515156 -3.69697,5.515156 z"
       id="path4251" />
    <path
       d="m 184.8544,39.486727 h 8.36364 V 16.213983 h -8.36364 z m 4.18182,-25.696988 c 2.27273,0 4.12121,-1.712123 4.12121,-3.8181851 0,-2.1060622 -1.84848,-3.8181847 -4.12121,-3.8181847 -2.27273,0 -4.12122,1.7121225 -4.12122,3.8181847 0,2.1060621 1.84849,3.8181851 4.12122,3.8181851 z"
       id="path4253" />
    <path
       d="m 204.67257,16.213983 h -8.36364 l 6.18182,11.636372 -6.60606,11.636372 h 8.36364 l 3.81818,-7.393945 3.9394,7.393945 h 8.24243 l -6.54546,-11.636372 6.24243,-11.636372 h -8.30303 l -3.57577,7.212126 z"
       id="path4255" />
    <path
       d="M 249.64228,8.4564012 V 27.607931 c 0,2.893941 -2.07576,4.9697 -4.9697,4.9697 -2.89395,0 -4.96971,-2.075759 -4.96971,-4.9697 V 8.4564012 h -8.42424 V 28.335204 c 0,7.090914 5.36364,11.51516 13.39395,11.51516 7.9697,0 13.39394,-4.424246 13.39394,-11.51516 V 8.4564012 Z"
       id="path4257" />
    <path
       d="m 262.0665,39.486727 h 8.42425 V 27.365506 h 12.06061 V 20.577622 H 270.49075 V 15.244285 H 283.8847 V 8.4564012 h -21.8182 z"
       id="path4259" />
    <path
       d="m 317.03625,23.971564 c 0,-10.363644 -6.66668,-15.9394055 -15.09092,-15.9394055 -8.48486,0 -15.09093,5.5757615 -15.09093,15.9394055 0,10.303038 6.60607,15.939406 15.09093,15.939406 8.42424,0 15.09092,-5.575762 15.09092,-15.939406 z m -8.66668,0 c 0,5.575762 -2.24242,8.606067 -6.42424,8.606067 -4.18183,0 -6.42425,-3.030305 -6.42425,-8.606067 0,-5.575761 2.24242,-8.606067 6.42425,-8.606067 4.18182,0 6.42424,3.030306 6.42424,8.606067 z"
       id="path4261" />
  </g>
  <g
     aria-label="Daudix UFO"
     transform="translate(104.9638,210.72545)"
     id="text4081"
     style="font-weight:900;font-size:42.6667px;font-family:Inter;-inkscape-font-specification:'Inter Heavy';text-align:center;text-anchor:middle;white-space:pre;shape-inside:url(#rect4083);display:inline;fill:#dc8add;fill-opacity:0.8;stroke-width:2;stroke-linecap:square">
    <path
       d="m 84.975567,39.486727 c 9.454552,0 15.454553,-5.818186 15.454553,-15.515163 0,-9.696977 -6.000001,-15.5151628 -15.575765,-15.5151628 H 73.036164 V 39.486727 Z m -3.515154,-7.15152 V 15.607922 h 2.969699 c 4.848488,0 7.515157,1.878789 7.515157,8.363642 0,6.484854 -2.666669,8.363643 -7.272733,8.363643 z"
       id="path4264" />
    <path
       d="m 110.91496,39.850364 c 3.0303,0 5.31818,-1.030304 6.72728,-3.636366 h 0.18181 v 3.272729 h 7.81819 V 23.547322 c 0,-4.303034 -4.07576,-7.63637 -10.72728,-7.63637 -6.95455,0 -10.3788,3.636367 -10.66667,7.878794 h 7.69697 c 0.19697,-1.439395 1.25758,-2.121214 2.84849,-2.121214 1.45454,0 2.48485,0.666667 2.48485,1.87879 v 0.06061 c 0,1.348486 -1.48485,1.772728 -5.39394,2.060607 -4.80304,0.348485 -8.54547,2.287881 -8.54547,7.393945 0,4.636367 3.12122,6.787884 7.57577,6.787884 z m 2.72727,-5.272731 c -1.42424,0 -2.42424,-0.69697 -2.42424,-2.000002 0,-1.19697 0.84848,-2.121213 2.78788,-2.424244 1.33333,-0.212121 2.45455,-0.484849 3.33333,-0.848485 v 1.939395 c 0,2.121214 -1.80303,3.333336 -3.69697,3.333336 z"
       id="path4266" />
    <path
       d="m 144.7332,29.304902 c 0.0151,2.303032 -1.31818,3.696972 -3.39394,3.696972 -2.10606,0 -3.31818,-1.39394 -3.33334,-3.696972 V 16.213983 h -8.36364 v 14.848496 c 0.0152,5.090913 3.22728,8.727279 8.12122,8.727279 3.4697,0 6.13637,-1.757577 7.15152,-4.727276 h 0.24242 v 4.424245 h 7.9394 V 16.213983 h -8.36364 z"
       id="path4268" />
    <path
       d="m 165.76349,39.789758 c 3.27273,0 5.51516,-1.757577 6.48486,-4.121215 h 0.18182 v 3.818184 h 8.30303 V 8.4564012 h -8.36364 V 20.274592 h -0.12121 c -0.90909,-2.363638 -3.09091,-4.36364 -6.54546,-4.36364 -4.60607,0 -9.09092,3.515154 -9.09092,11.939403 0,8.060612 4.18182,11.939403 9.15152,11.939403 z m 3.09092,-6.424247 c -2.30304,0 -3.63637,-2.060608 -3.63637,-5.515156 0,-3.454548 1.33333,-5.515156 3.63637,-5.515156 2.30303,0 3.69697,2.060608 3.69697,5.515156 0,3.393942 -1.39394,5.515156 -3.69697,5.515156 z"
       id="path4270" />
    <path
       d="m 184.8544,39.486727 h 8.36364 V 16.213983 h -8.36364 z m 4.18182,-25.696988 c 2.27273,0 4.12121,-1.712123 4.12121,-3.8181851 0,-2.1060622 -1.84848,-3.8181847 -4.12121,-3.8181847 -2.27273,0 -4.12122,1.7121225 -4.12122,3.8181847 0,2.1060621 1.84849,3.8181851 4.12122,3.8181851 z"
       id="path4272" />
    <path
       d="m 204.67257,16.213983 h -8.36364 l 6.18182,11.636372 -6.60606,11.636372 h 8.36364 l 3.81818,-7.393945 3.9394,7.393945 h 8.24243 l -6.54546,-11.636372 6.24243,-11.636372 h -8.30303 l -3.57577,7.212126 z"
       id="path4274" />
    <path
       d="M 249.64228,8.4564012 V 27.607931 c 0,2.893941 -2.07576,4.9697 -4.9697,4.9697 -2.89395,0 -4.96971,-2.075759 -4.96971,-4.9697 V 8.4564012 h -8.42424 V 28.335204 c 0,7.090914 5.36364,11.51516 13.39395,11.51516 7.9697,0 13.39394,-4.424246 13.39394,-11.51516 V 8.4564012 Z"
       id="path4276" />
    <path
       d="m 262.0665,39.486727 h 8.42425 V 27.365506 h 12.06061 V 20.577622 H 270.49075 V 15.244285 H 283.8847 V 8.4564012 h -21.8182 z"
       id="path4278" />
    <path
       d="m 317.03625,23.971564 c 0,-10.363644 -6.66668,-15.9394055 -15.09092,-15.9394055 -8.48486,0 -15.09093,5.5757615 -15.09093,15.9394055 0,10.303038 6.60607,15.939406 15.09093,15.939406 8.42424,0 15.09092,-5.575762 15.09092,-15.939406 z m -8.66668,0 c 0,5.575762 -2.24242,8.606067 -6.42424,8.606067 -4.18183,0 -6.42425,-3.030305 -6.42425,-8.606067 0,-5.575761 2.24242,-8.606067 6.42425,-8.606067 4.18182,0 6.42424,3.030306 6.42424,8.606067 z"
       id="path4280" />
  </g>
  <g
     aria-label="Daudix UFO"
     transform="translate(104.9638,244.48305)"
     id="text4087"
     style="font-weight:900;font-size:42.6667px;font-family:Inter;-inkscape-font-specification:'Inter Heavy';text-align:center;text-anchor:middle;white-space:pre;shape-inside:url(#rect4089);display:inline;fill:#dc8add;fill-opacity:0.6;stroke-width:2;stroke-linecap:square">
    <path
       d="m 84.975567,39.486727 c 9.454552,0 15.454553,-5.818186 15.454553,-15.515163 0,-9.696977 -6.000001,-15.5151628 -15.575765,-15.5151628 H 73.036164 V 39.486727 Z m -3.515154,-7.15152 V 15.607922 h 2.969699 c 4.848488,0 7.515157,1.878789 7.515157,8.363642 0,6.484854 -2.666669,8.363643 -7.272733,8.363643 z"
       id="path4283" />
    <path
       d="m 110.91496,39.850364 c 3.0303,0 5.31818,-1.030304 6.72728,-3.636366 h 0.18181 v 3.272729 h 7.81819 V 23.547322 c 0,-4.303034 -4.07576,-7.63637 -10.72728,-7.63637 -6.95455,0 -10.3788,3.636367 -10.66667,7.878794 h 7.69697 c 0.19697,-1.439395 1.25758,-2.121214 2.84849,-2.121214 1.45454,0 2.48485,0.666667 2.48485,1.87879 v 0.06061 c 0,1.348486 -1.48485,1.772728 -5.39394,2.060607 -4.80304,0.348485 -8.54547,2.287881 -8.54547,7.393945 0,4.636367 3.12122,6.787884 7.57577,6.787884 z m 2.72727,-5.272731 c -1.42424,0 -2.42424,-0.69697 -2.42424,-2.000002 0,-1.19697 0.84848,-2.121213 2.78788,-2.424244 1.33333,-0.212121 2.45455,-0.484849 3.33333,-0.848485 v 1.939395 c 0,2.121214 -1.80303,3.333336 -3.69697,3.333336 z"
       id="path4285" />
    <path
       d="m 144.7332,29.304902 c 0.0151,2.303032 -1.31818,3.696972 -3.39394,3.696972 -2.10606,0 -3.31818,-1.39394 -3.33334,-3.696972 V 16.213983 h -8.36364 v 14.848496 c 0.0152,5.090913 3.22728,8.727279 8.12122,8.727279 3.4697,0 6.13637,-1.757577 7.15152,-4.727276 h 0.24242 v 4.424245 h 7.9394 V 16.213983 h -8.36364 z"
       id="path4287" />
    <path
       d="m 165.76349,39.789758 c 3.27273,0 5.51516,-1.757577 6.48486,-4.121215 h 0.18182 v 3.818184 h 8.30303 V 8.4564012 h -8.36364 V 20.274592 h -0.12121 c -0.90909,-2.363638 -3.09091,-4.36364 -6.54546,-4.36364 -4.60607,0 -9.09092,3.515154 -9.09092,11.939403 0,8.060612 4.18182,11.939403 9.15152,11.939403 z m 3.09092,-6.424247 c -2.30304,0 -3.63637,-2.060608 -3.63637,-5.515156 0,-3.454548 1.33333,-5.515156 3.63637,-5.515156 2.30303,0 3.69697,2.060608 3.69697,5.515156 0,3.393942 -1.39394,5.515156 -3.69697,5.515156 z"
       id="path4289" />
    <path
       d="m 184.8544,39.486727 h 8.36364 V 16.213983 h -8.36364 z m 4.18182,-25.696988 c 2.27273,0 4.12121,-1.712123 4.12121,-3.8181851 0,-2.1060622 -1.84848,-3.8181847 -4.12121,-3.8181847 -2.27273,0 -4.12122,1.7121225 -4.12122,3.8181847 0,2.1060621 1.84849,3.8181851 4.12122,3.8181851 z"
       id="path4291" />
    <path
       d="m 204.67257,16.213983 h -8.36364 l 6.18182,11.636372 -6.60606,11.636372 h 8.36364 l 3.81818,-7.393945 3.9394,7.393945 h 8.24243 l -6.54546,-11.636372 6.24243,-11.636372 h -8.30303 l -3.57577,7.212126 z"
       id="path4293" />
    <path
       d="M 249.64228,8.4564012 V 27.607931 c 0,2.893941 -2.07576,4.9697 -4.9697,4.9697 -2.89395,0 -4.96971,-2.075759 -4.96971,-4.9697 V 8.4564012 h -8.42424 V 28.335204 c 0,7.090914 5.36364,11.51516 13.39395,11.51516 7.9697,0 13.39394,-4.424246 13.39394,-11.51516 V 8.4564012 Z"
       id="path4295" />
    <path
       d="m 262.0665,39.486727 h 8.42425 V 27.365506 h 12.06061 V 20.577622 H 270.49075 V 15.244285 H 283.8847 V 8.4564012 h -21.8182 z"
       id="path4297" />
    <path
       d="m 317.03625,23.971564 c 0,-10.363644 -6.66668,-15.9394055 -15.09092,-15.9394055 -8.48486,0 -15.09093,5.5757615 -15.09093,15.9394055 0,10.303038 6.60607,15.939406 15.09093,15.939406 8.42424,0 15.09092,-5.575762 15.09092,-15.939406 z m -8.66668,0 c 0,5.575762 -2.24242,8.606067 -6.42424,8.606067 -4.18183,0 -6.42425,-3.030305 -6.42425,-8.606067 0,-5.575761 2.24242,-8.606067 6.42425,-8.606067 4.18182,0 6.42424,3.030306 6.42424,8.606067 z"
       id="path4299" />
  </g>
  <g
     aria-label="Daudix UFO"
     transform="translate(104.9638,278.24065)"
     id="text4093"
     style="font-weight:900;font-size:42.6667px;font-family:Inter;-inkscape-font-specification:'Inter Heavy';text-align:center;text-anchor:middle;white-space:pre;shape-inside:url(#rect4095);display:inline;fill:#dc8add;fill-opacity:0.4;stroke-width:2;stroke-linecap:square">
    <path
       d="m 84.975567,39.486727 c 9.454552,0 15.454553,-5.818186 15.454553,-15.515163 0,-9.696977 -6.000001,-15.5151628 -15.575765,-15.5151628 H 73.036164 V 39.486727 Z m -3.515154,-7.15152 V 15.607922 h 2.969699 c 4.848488,0 7.515157,1.878789 7.515157,8.363642 0,6.484854 -2.666669,8.363643 -7.272733,8.363643 z"
       id="path4302" />
    <path
       d="m 110.91496,39.850364 c 3.0303,0 5.31818,-1.030304 6.72728,-3.636366 h 0.18181 v 3.272729 h 7.81819 V 23.547322 c 0,-4.303034 -4.07576,-7.63637 -10.72728,-7.63637 -6.95455,0 -10.3788,3.636367 -10.66667,7.878794 h 7.69697 c 0.19697,-1.439395 1.25758,-2.121214 2.84849,-2.121214 1.45454,0 2.48485,0.666667 2.48485,1.87879 v 0.06061 c 0,1.348486 -1.48485,1.772728 -5.39394,2.060607 -4.80304,0.348485 -8.54547,2.287881 -8.54547,7.393945 0,4.636367 3.12122,6.787884 7.57577,6.787884 z m 2.72727,-5.272731 c -1.42424,0 -2.42424,-0.69697 -2.42424,-2.000002 0,-1.19697 0.84848,-2.121213 2.78788,-2.424244 1.33333,-0.212121 2.45455,-0.484849 3.33333,-0.848485 v 1.939395 c 0,2.121214 -1.80303,3.333336 -3.69697,3.333336 z"
       id="path4304" />
    <path
       d="m 144.7332,29.304902 c 0.0151,2.303032 -1.31818,3.696972 -3.39394,3.696972 -2.10606,0 -3.31818,-1.39394 -3.33334,-3.696972 V 16.213983 h -8.36364 v 14.848496 c 0.0152,5.090913 3.22728,8.727279 8.12122,8.727279 3.4697,0 6.13637,-1.757577 7.15152,-4.727276 h 0.24242 v 4.424245 h 7.9394 V 16.213983 h -8.36364 z"
       id="path4306" />
    <path
       d="m 165.76349,39.789758 c 3.27273,0 5.51516,-1.757577 6.48486,-4.121215 h 0.18182 v 3.818184 h 8.30303 V 8.4564012 h -8.36364 V 20.274592 h -0.12121 c -0.90909,-2.363638 -3.09091,-4.36364 -6.54546,-4.36364 -4.60607,0 -9.09092,3.515154 -9.09092,11.939403 0,8.060612 4.18182,11.939403 9.15152,11.939403 z m 3.09092,-6.424247 c -2.30304,0 -3.63637,-2.060608 -3.63637,-5.515156 0,-3.454548 1.33333,-5.515156 3.63637,-5.515156 2.30303,0 3.69697,2.060608 3.69697,5.515156 0,3.393942 -1.39394,5.515156 -3.69697,5.515156 z"
       id="path4308" />
    <path
       d="m 184.8544,39.486727 h 8.36364 V 16.213983 h -8.36364 z m 4.18182,-25.696988 c 2.27273,0 4.12121,-1.712123 4.12121,-3.8181851 0,-2.1060622 -1.84848,-3.8181847 -4.12121,-3.8181847 -2.27273,0 -4.12122,1.7121225 -4.12122,3.8181847 0,2.1060621 1.84849,3.8181851 4.12122,3.8181851 z"
       id="path4310" />
    <path
       d="m 204.67257,16.213983 h -8.36364 l 6.18182,11.636372 -6.60606,11.636372 h 8.36364 l 3.81818,-7.393945 3.9394,7.393945 h 8.24243 l -6.54546,-11.636372 6.24243,-11.636372 h -8.30303 l -3.57577,7.212126 z"
       id="path4312" />
    <path
       d="M 249.64228,8.4564012 V 27.607931 c 0,2.893941 -2.07576,4.9697 -4.9697,4.9697 -2.89395,0 -4.96971,-2.075759 -4.96971,-4.9697 V 8.4564012 h -8.42424 V 28.335204 c 0,7.090914 5.36364,11.51516 13.39395,11.51516 7.9697,0 13.39394,-4.424246 13.39394,-11.51516 V 8.4564012 Z"
       id="path4314" />
    <path
       d="m 262.0665,39.486727 h 8.42425 V 27.365506 h 12.06061 V 20.577622 H 270.49075 V 15.244285 H 283.8847 V 8.4564012 h -21.8182 z"
       id="path4316" />
    <path
       d="m 317.03625,23.971564 c 0,-10.363644 -6.66668,-15.9394055 -15.09092,-15.9394055 -8.48486,0 -15.09093,5.5757615 -15.09093,15.9394055 0,10.303038 6.60607,15.939406 15.09093,15.939406 8.42424,0 15.09092,-5.575762 15.09092,-15.939406 z m -8.66668,0 c 0,5.575762 -2.24242,8.606067 -6.42424,8.606067 -4.18183,0 -6.42425,-3.030305 -6.42425,-8.606067 0,-5.575761 2.24242,-8.606067 6.42425,-8.606067 4.18182,0 6.42424,3.030306 6.42424,8.606067 z"
       id="path4318" />
  </g>
  <g
     aria-label="Daudix UFO"
     transform="translate(104.9638,311.99825)"
     id="text4099"
     style="font-weight:900;font-size:42.6667px;font-family:Inter;-inkscape-font-specification:'Inter Heavy';text-align:center;text-anchor:middle;white-space:pre;shape-inside:url(#rect4101);display:inline;fill:#dc8add;fill-opacity:0.2;stroke-width:2;stroke-linecap:square">
    <path
       d="m 84.975567,39.486727 c 9.454552,0 15.454553,-5.818186 15.454553,-15.515163 0,-9.696977 -6.000001,-15.5151628 -15.575765,-15.5151628 H 73.036164 V 39.486727 Z m -3.515154,-7.15152 V 15.607922 h 2.969699 c 4.848488,0 7.515157,1.878789 7.515157,8.363642 0,6.484854 -2.666669,8.363643 -7.272733,8.363643 z"
       id="path4321" />
    <path
       d="m 110.91496,39.850364 c 3.0303,0 5.31818,-1.030304 6.72728,-3.636366 h 0.18181 v 3.272729 h 7.81819 V 23.547322 c 0,-4.303034 -4.07576,-7.63637 -10.72728,-7.63637 -6.95455,0 -10.3788,3.636367 -10.66667,7.878794 h 7.69697 c 0.19697,-1.439395 1.25758,-2.121214 2.84849,-2.121214 1.45454,0 2.48485,0.666667 2.48485,1.87879 v 0.06061 c 0,1.348486 -1.48485,1.772728 -5.39394,2.060607 -4.80304,0.348485 -8.54547,2.287881 -8.54547,7.393945 0,4.636367 3.12122,6.787884 7.57577,6.787884 z m 2.72727,-5.272731 c -1.42424,0 -2.42424,-0.69697 -2.42424,-2.000002 0,-1.19697 0.84848,-2.121213 2.78788,-2.424244 1.33333,-0.212121 2.45455,-0.484849 3.33333,-0.848485 v 1.939395 c 0,2.121214 -1.80303,3.333336 -3.69697,3.333336 z"
       id="path4323" />
    <path
       d="m 144.7332,29.304902 c 0.0151,2.303032 -1.31818,3.696972 -3.39394,3.696972 -2.10606,0 -3.31818,-1.39394 -3.33334,-3.696972 V 16.213983 h -8.36364 v 14.848496 c 0.0152,5.090913 3.22728,8.727279 8.12122,8.727279 3.4697,0 6.13637,-1.757577 7.15152,-4.727276 h 0.24242 v 4.424245 h 7.9394 V 16.213983 h -8.36364 z"
       id="path4325" />
    <path
       d="m 165.76349,39.789758 c 3.27273,0 5.51516,-1.757577 6.48486,-4.121215 h 0.18182 v 3.818184 h 8.30303 V 8.4564012 h -8.36364 V 20.274592 h -0.12121 c -0.90909,-2.363638 -3.09091,-4.36364 -6.54546,-4.36364 -4.60607,0 -9.09092,3.515154 -9.09092,11.939403 0,8.060612 4.18182,11.939403 9.15152,11.939403 z m 3.09092,-6.424247 c -2.30304,0 -3.63637,-2.060608 -3.63637,-5.515156 0,-3.454548 1.33333,-5.515156 3.63637,-5.515156 2.30303,0 3.69697,2.060608 3.69697,5.515156 0,3.393942 -1.39394,5.515156 -3.69697,5.515156 z"
       id="path4327" />
    <path
       d="m 184.8544,39.486727 h 8.36364 V 16.213983 h -8.36364 z m 4.18182,-25.696988 c 2.27273,0 4.12121,-1.712123 4.12121,-3.8181851 0,-2.1060622 -1.84848,-3.8181847 -4.12121,-3.8181847 -2.27273,0 -4.12122,1.7121225 -4.12122,3.8181847 0,2.1060621 1.84849,3.8181851 4.12122,3.8181851 z"
       id="path4329" />
    <path
       d="m 204.67257,16.213983 h -8.36364 l 6.18182,11.636372 -6.60606,11.636372 h 8.36364 l 3.81818,-7.393945 3.9394,7.393945 h 8.24243 l -6.54546,-11.636372 6.24243,-11.636372 h -8.30303 l -3.57577,7.212126 z"
       id="path4331" />
    <path
       d="M 249.64228,8.4564012 V 27.607931 c 0,2.893941 -2.07576,4.9697 -4.9697,4.9697 -2.89395,0 -4.96971,-2.075759 -4.96971,-4.9697 V 8.4564012 h -8.42424 V 28.335204 c 0,7.090914 5.36364,11.51516 13.39395,11.51516 7.9697,0 13.39394,-4.424246 13.39394,-11.51516 V 8.4564012 Z"
       id="path4333" />
    <path
       d="m 262.0665,39.486727 h 8.42425 V 27.365506 h 12.06061 V 20.577622 H 270.49075 V 15.244285 H 283.8847 V 8.4564012 h -21.8182 z"
       id="path4335" />
    <path
       d="m 317.03625,23.971564 c 0,-10.363644 -6.66668,-15.9394055 -15.09092,-15.9394055 -8.48486,0 -15.09093,5.5757615 -15.09093,15.9394055 0,10.303038 6.60607,15.939406 15.09093,15.939406 8.42424,0 15.09092,-5.575762 15.09092,-15.939406 z m -8.66668,0 c 0,5.575762 -2.24242,8.606067 -6.42424,8.606067 -4.18183,0 -6.42425,-3.030305 -6.42425,-8.606067 0,-5.575761 2.24242,-8.606067 6.42425,-8.606067 4.18182,0 6.42424,3.030306 6.42424,8.606067 z"
       id="path4337" />
  </g>
</svg>
